<svg xmlns="http://www.w3.org/2000/svg" width="30" height="30" viewBox="0 0 30 30"><path d="M89.016,189.906h4.593v13.819H89.016Zm0,0" transform="translate(-83.599 -179.006)"/><path d="M87.539,96.773h.03a2.561,2.561,0,1,0-.03,0Zm0,0" transform="translate(-79.84 -86.402)"/><path d="M198.458,199.28v-7.718a3.145,3.145,0,0,1,.153-1.12,2.512,2.512,0,0,1,2.357-1.68c1.663,0,2.327,1.268,2.327,3.124v7.393h4.594v-7.924c0-4.244-2.266-6.219-5.29-6.219a4.563,4.563,0,0,0-4.141,2.283v.045h-.03c.008-.015.021-.03.03-.045v-1.958h-4.6c.062,1.3,0,13.819,0,13.819h4.6Zm0,0" transform="translate(-182.758 -174.543)"/><path d="M0,0V30H30V0ZM28.144,28.144H1.856V1.856H28.144Zm0,0"/></svg>