<svg xmlns="http://www.w3.org/2000/svg" width="30" height="30" viewBox="0 0 30 30"><g transform="translate(153.47 -108.106)"><path d="M8,0a8,8,0,1,0,4.267,14.768l-.534-.846A7,7,0,1,1,15,8v.5a1.5,1.5,0,0,1-3,0V5H11v.382a4,4,0,1,0,.471,4.567A2.495,2.495,0,0,0,16,8.5V8A8.009,8.009,0,0,0,8,0ZM8,11a3,3,0,1,1,3-3A3,3,0,0,1,8,11Z" transform="translate(-146.47 115.106)" fill="none" stroke="#000" stroke-width="2"/><path d="M0,0V30H30V0ZM28.144,28.144H1.856V1.856H28.144Zm0,0" transform="translate(-153.47 108.106)"/></g></svg>