<svg xmlns="http://www.w3.org/2000/svg" width="30" height="27" viewBox="0 0 30 27"><g transform="translate(-0.002 0.001)"><path d="M29.065,27H.938a.932.932,0,0,1-.812-.483.994.994,0,0,1,0-.965L14.19.447a.958.958,0,0,1,1.623,0l14.063,25.1a.994.994,0,0,1,0,.965.932.932,0,0,1-.811.483Zm-26.5-1.931H27.442L15,2.861Zm0,0" transform="translate(0 0)" fill="#ef1313"/><path d="M240.957,353.09a.936.936,0,0,1-.945-.945.994.994,0,0,1,.274-.672,1.1,1.1,0,0,1,.312-.2.944.944,0,0,1,1.031.2,1,1,0,0,1,.274.672.936.936,0,0,1-.945.945Zm0,0" transform="translate(-225.956 -329.873)" fill="#ef1313"/><path d="M240.957,122.643a.909.909,0,0,1-.945-.869V112.22a.949.949,0,0,1,1.891,0v9.555A.909.909,0,0,1,240.957,122.643Zm0,0" transform="translate(-225.956 -104.042)" fill="#ef1313"/></g></svg>