<svg xmlns="http://www.w3.org/2000/svg" width="30" height="30" viewBox="0 0 30 30"><path d="M88.414,161.616a9.009,9.009,0,0,0,2.525,2.784,5.894,5.894,0,0,0,3.752.951c.62-.035.806-.225.835-.953a3.723,3.723,0,0,1,.276-1.443c.2-.439.515-.522.873-.249a2.675,2.675,0,0,1,.471.5c.349.449.687.914,1.049,1.348a1.889,1.889,0,0,0,1.671.8h2.621c.422-.034.641-.643.4-1.2a6.139,6.139,0,0,0-.631-1.069,26.713,26.713,0,0,0-1.764-2.09,1.168,1.168,0,0,1-.14-1.692c.473-.78.98-1.529,1.457-2.3a8.811,8.811,0,0,0,1.134-2.315c.149-.553.017-.8-.463-.895a1.34,1.34,0,0,0-.254-.016l-2.852,0c-.351-.007-.545.174-.669.541-.168.5-.341.992-.542,1.469a12.428,12.428,0,0,1-1.668,3.021c-.157.2-.331.443-.592.342-.326-.141-.423-.775-.417-.99l0-3.879c-.063-.553-.168-.8-.635-.908H91.883a.91.91,0,0,0-.805.472c-.121.169-.158.277.092.334a1.1,1.1,0,0,1,.843,1.065,14.058,14.058,0,0,1,.041,2.792,2.985,2.985,0,0,1-.15.8c-.143.4-.375.481-.679.235a3.163,3.163,0,0,1-.657-.851,20.078,20.078,0,0,1-1.74-3.8c-.133-.387-.364-.622-.712-.628-.855-.016-1.712-.018-2.568,0-.514.011-.668.306-.457.856a39.748,39.748,0,0,0,3.323,6.978Zm0,0" transform="translate(-79.232 -144.411)"/><path d="M0,0V30H30V0ZM28.144,28.144H1.856V1.856H28.144Zm0,0"/></svg>